<?xml version="1.0" encoding="UTF-8" standalone="no"?>
<!-- Created with Inkscape (http://www.inkscape.org/) -->

<svg
   xmlns:dc="http://purl.org/dc/elements/1.1/"
   xmlns:cc="http://creativecommons.org/ns#"
   xmlns:rdf="http://www.w3.org/1999/02/22-rdf-syntax-ns#"
   xmlns:svg="http://www.w3.org/2000/svg"
   xmlns="http://www.w3.org/2000/svg"
   xmlns:sodipodi="http://sodipodi.sourceforge.net/DTD/sodipodi-0.dtd"
   xmlns:inkscape="http://www.inkscape.org/namespaces/inkscape"
   width="210mm"
   height="297mm"
   viewBox="0 0 744.09448819 1052.3622047"
   id="svg2"
   version="1.1"
   inkscape:version="0.91 r13725"
   sodipodi:docname="Graph09.svg">
  <defs
     id="defs4" />
  <sodipodi:namedview
     id="base"
     pagecolor="#ffffff"
     bordercolor="#666666"
     borderopacity="1.0"
     inkscape:pageopacity="0.0"
     inkscape:pageshadow="2"
     inkscape:zoom="1.4"
     inkscape:cx="375"
     inkscape:cy="520"
     inkscape:document-units="px"
     inkscape:current-layer="layer1"
     showgrid="false"
     inkscape:window-width="1366"
     inkscape:window-height="705"
     inkscape:window-x="-8"
     inkscape:window-y="-8"
     inkscape:window-maximized="1" />
  <metadata
     id="metadata7">
    <rdf:RDF>
      <cc:Work
         rdf:about="">
        <dc:format>image/svg+xml</dc:format>
        <dc:type
           rdf:resource="http://purl.org/dc/dcmitype/StillImage" />
        <dc:title></dc:title>
      </cc:Work>
    </rdf:RDF>
  </metadata>
  <g
     inkscape:label="Layer 1"
     inkscape:groupmode="layer"
     id="layer1">
    <g
       id="g3346"
       transform="matrix(1.25,0,0,-1.25,71.941965,732.51849)">
      <path
         d="m 0,0 483.75,0 0,320.25 L 0,320.25 0,0 Z"
         style="fill:#ffffff;fill-opacity:1;fill-rule:nonzero;stroke:none"
         id="path3348"
         inkscape:connector-curvature="0" />
    </g>
    <path
       inkscape:connector-curvature="0"
       id="path3352"
       style="fill:#bebebe;fill-opacity:1;fill-rule:nonzero;stroke:#000000;stroke-width:0.9375;stroke-linecap:round;stroke-linejoin:round;stroke-miterlimit:10;stroke-dasharray:none;stroke-opacity:1"
       d="m 164.00446,638.39349 9.8,0 0,-232.3875 -9.8,0 0,232.3875 z" />
    <path
       inkscape:connector-curvature="0"
       id="path3354"
       style="fill:#bebebe;fill-opacity:1;fill-rule:nonzero;stroke:#000000;stroke-width:0.9375;stroke-linecap:round;stroke-linejoin:round;stroke-miterlimit:10;stroke-dasharray:none;stroke-opacity:1"
       d="m 175.76696,638.39349 9.8,0 0,-152.1125 -9.8,0 0,152.1125 z" />
    <path
       inkscape:connector-curvature="0"
       id="path3356"
       style="fill:#bebebe;fill-opacity:1;fill-rule:nonzero;stroke:#000000;stroke-width:0.9375;stroke-linecap:round;stroke-linejoin:round;stroke-miterlimit:10;stroke-dasharray:none;stroke-opacity:1"
       d="m 187.51696,638.39349 9.8,0 0,-76.05 -9.8,0 0,76.05 z" />
    <path
       inkscape:connector-curvature="0"
       id="path3358"
       style="fill:#bebebe;fill-opacity:1;fill-rule:nonzero;stroke:#000000;stroke-width:0.9375;stroke-linecap:round;stroke-linejoin:round;stroke-miterlimit:10;stroke-dasharray:none;stroke-opacity:1"
       d="m 199.27947,638.39349 9.79999,0 0,-54.925 -9.79999,0 0,54.925 z" />
    <path
       inkscape:connector-curvature="0"
       id="path3360"
       style="fill:#bebebe;fill-opacity:1;fill-rule:nonzero;stroke:#000000;stroke-width:0.9375;stroke-linecap:round;stroke-linejoin:round;stroke-miterlimit:10;stroke-dasharray:none;stroke-opacity:1"
       d="m 211.02946,638.39349 9.8,0 0,-38.025 -9.8,0 0,38.025 z" />
    <path
       inkscape:connector-curvature="0"
       id="path3362"
       style="fill:#bebebe;fill-opacity:1;fill-rule:nonzero;stroke:#000000;stroke-width:0.9375;stroke-linecap:round;stroke-linejoin:round;stroke-miterlimit:10;stroke-dasharray:none;stroke-opacity:1"
       d="m 222.79196,638.39349 9.80001,0 0,-25.35 -9.80001,0 0,25.35 z" />
    <path
       inkscape:connector-curvature="0"
       id="path3364"
       style="fill:#bebebe;fill-opacity:1;fill-rule:nonzero;stroke:#000000;stroke-width:0.9375;stroke-linecap:round;stroke-linejoin:round;stroke-miterlimit:10;stroke-dasharray:none;stroke-opacity:1"
       d="m 234.54196,638.39349 9.80001,0 0,-4.225 -9.80001,0 0,4.225 z" />
    <path
       inkscape:connector-curvature="0"
       id="path3366"
       style="fill:#bebebe;fill-opacity:1;fill-rule:nonzero;stroke:#000000;stroke-width:0.9375;stroke-linecap:round;stroke-linejoin:round;stroke-miterlimit:10;stroke-dasharray:none;stroke-opacity:1"
       d="m 246.30446,638.39349 9.8,0 0,-4.225 -9.8,0 0,4.225 z" />
    <path
       inkscape:connector-curvature="0"
       id="path3368"
       style="fill:#bebebe;fill-opacity:1;fill-rule:nonzero;stroke:#000000;stroke-width:0.9375;stroke-linecap:round;stroke-linejoin:round;stroke-miterlimit:10;stroke-dasharray:none;stroke-opacity:1"
       d="m 258.05446,638.39349 9.8,0 0,-4.225 -9.8,0 0,4.225 z" />
    <path
       inkscape:connector-curvature="0"
       id="path3370"
       style="fill:#bebebe;fill-opacity:1;fill-rule:nonzero;stroke:#000000;stroke-width:0.9375;stroke-linecap:round;stroke-linejoin:round;stroke-miterlimit:10;stroke-dasharray:none;stroke-opacity:1"
       d="m 269.81696,638.39349 9.8,0 0,-16.9 -9.8,0 0,16.9 z" />
    <path
       inkscape:connector-curvature="0"
       id="path3372"
       style="fill:#bebebe;fill-opacity:1;fill-rule:nonzero;stroke:#000000;stroke-width:0.9375;stroke-linecap:round;stroke-linejoin:round;stroke-miterlimit:10;stroke-dasharray:none;stroke-opacity:1"
       d="m 281.57947,638.39349 9.79999,0 0,-12.675 -9.79999,0 0,12.675 z" />
    <path
       inkscape:connector-curvature="0"
       id="path3374"
       style="fill:#bebebe;fill-opacity:1;fill-rule:nonzero;stroke:#000000;stroke-width:0.9375;stroke-linecap:round;stroke-linejoin:round;stroke-miterlimit:10;stroke-dasharray:none;stroke-opacity:1"
       d="m 293.32947,638.39349 9.8,0 0,-25.35 -9.8,0 0,25.35 z" />
    <path
       inkscape:connector-curvature="0"
       id="path3376"
       style="fill:#bebebe;fill-opacity:1;fill-rule:nonzero;stroke:#000000;stroke-width:0.9375;stroke-linecap:round;stroke-linejoin:round;stroke-miterlimit:10;stroke-dasharray:none;stroke-opacity:1"
       d="m 305.09197,638.39349 9.8,0 0,-4.225 -9.8,0 0,4.225 z" />
    <path
       inkscape:connector-curvature="0"
       id="path3378"
       style="fill:#bebebe;fill-opacity:1;fill-rule:nonzero;stroke:#000000;stroke-width:0.9375;stroke-linecap:round;stroke-linejoin:round;stroke-miterlimit:10;stroke-dasharray:none;stroke-opacity:1"
       d="m 316.84196,638.39349 9.8,0 0,-16.9 -9.8,0 0,16.9 z" />
    <path
       inkscape:connector-curvature="0"
       id="path3380"
       style="fill:#bebebe;fill-opacity:1;fill-rule:nonzero;stroke:#000000;stroke-width:0.9375;stroke-linecap:round;stroke-linejoin:round;stroke-miterlimit:10;stroke-dasharray:none;stroke-opacity:1"
       d="m 328.60446,638.39349 9.80001,0 0,-33.8 -9.80001,0 0,33.8 z" />
    <path
       inkscape:connector-curvature="0"
       id="path3382"
       style="fill:#bebebe;fill-opacity:1;fill-rule:nonzero;stroke:#000000;stroke-width:0.9375;stroke-linecap:round;stroke-linejoin:round;stroke-miterlimit:10;stroke-dasharray:none;stroke-opacity:1"
       d="m 340.35446,638.39349 9.8,0 0,-46.475 -9.8,0 0,46.475 z" />
    <path
       inkscape:connector-curvature="0"
       id="path3384"
       style="fill:#ff0000;fill-opacity:1;fill-rule:nonzero;stroke:#000000;stroke-width:0.9375;stroke-linecap:round;stroke-linejoin:round;stroke-miterlimit:10;stroke-dasharray:none;stroke-opacity:1"
       d="m 352.11696,638.39349 9.8,0 0,-105.6375 -9.8,0 0,105.6375 z" />
    <path
       inkscape:connector-curvature="0"
       id="path3386"
       style="fill:#bebebe;fill-opacity:1;fill-rule:nonzero;stroke:#000000;stroke-width:0.9375;stroke-linecap:round;stroke-linejoin:round;stroke-miterlimit:10;stroke-dasharray:none;stroke-opacity:1"
       d="m 363.86696,638.39349 9.8,0 0,-63.375 -9.8,0 0,63.375 z" />
    <path
       inkscape:connector-curvature="0"
       id="path3388"
       style="fill:#bebebe;fill-opacity:1;fill-rule:nonzero;stroke:#000000;stroke-width:0.9375;stroke-linecap:round;stroke-linejoin:round;stroke-miterlimit:10;stroke-dasharray:none;stroke-opacity:1"
       d="m 375.62946,638.39349 9.8,0 0,-59.15 -9.8,0 0,59.15 z" />
    <path
       inkscape:connector-curvature="0"
       id="path3390"
       style="fill:#bebebe;fill-opacity:1;fill-rule:nonzero;stroke:#000000;stroke-width:0.9375;stroke-linecap:round;stroke-linejoin:round;stroke-miterlimit:10;stroke-dasharray:none;stroke-opacity:1"
       d="m 387.39197,638.39349 9.79999,0 0,-16.9 -9.8,0 0,16.9 z" />
    <path
       inkscape:connector-curvature="0"
       id="path3392"
       style="fill:#bebebe;fill-opacity:1;fill-rule:nonzero;stroke:#000000;stroke-width:0.9375;stroke-linecap:round;stroke-linejoin:round;stroke-miterlimit:10;stroke-dasharray:none;stroke-opacity:1"
       d="m 399.14196,638.39349 9.8,0 0,-12.675 -9.8,0 0,12.675 z" />
    <path
       inkscape:connector-curvature="0"
       id="path3394"
       style="fill:#bebebe;fill-opacity:1;fill-rule:nonzero;stroke:#000000;stroke-width:0.9375;stroke-linecap:round;stroke-linejoin:round;stroke-miterlimit:10;stroke-dasharray:none;stroke-opacity:1"
       d="m 410.90447,638.39349 9.79999,0 0,-46.475 -9.79999,0 0,46.475 z" />
    <path
       inkscape:connector-curvature="0"
       id="path3396"
       style="fill:#bebebe;fill-opacity:1;fill-rule:nonzero;stroke:#000000;stroke-width:0.9375;stroke-linecap:round;stroke-linejoin:round;stroke-miterlimit:10;stroke-dasharray:none;stroke-opacity:1"
       d="m 422.65446,638.39349 9.8,0 0,-4.225 -9.8,0 0,4.225 z" />
    <path
       inkscape:connector-curvature="0"
       id="path3398"
       style="fill:#bebebe;fill-opacity:1;fill-rule:nonzero;stroke:#000000;stroke-width:0.9375;stroke-linecap:round;stroke-linejoin:round;stroke-miterlimit:10;stroke-dasharray:none;stroke-opacity:1"
       d="m 434.41696,638.39349 9.8,0 0,-4.225 -9.8,0 0,4.225 z" />
    <path
       inkscape:connector-curvature="0"
       id="path3400"
       style="fill:#bebebe;fill-opacity:1;fill-rule:nonzero;stroke:#000000;stroke-width:0.9375;stroke-linecap:round;stroke-linejoin:round;stroke-miterlimit:10;stroke-dasharray:none;stroke-opacity:1"
       d="m 446.16696,638.39349 9.8,0 0,-21.125 -9.8,0 0,21.125 z" />
    <path
       inkscape:connector-curvature="0"
       id="path3402"
       style="fill:#bebebe;fill-opacity:1;fill-rule:nonzero;stroke:#000000;stroke-width:0.9375;stroke-linecap:round;stroke-linejoin:round;stroke-miterlimit:10;stroke-dasharray:none;stroke-opacity:1"
       d="m 457.92947,638.39349 9.79999,0 0,-21.125 -9.79999,0 0,21.125 z" />
    <path
       inkscape:connector-curvature="0"
       id="path3404"
       style="fill:#bebebe;fill-opacity:1;fill-rule:nonzero;stroke:#000000;stroke-width:0.9375;stroke-linecap:round;stroke-linejoin:round;stroke-miterlimit:10;stroke-dasharray:none;stroke-opacity:1"
       d="m 469.69196,638.39349 9.8,0 0,-12.675 -9.8,0 0,12.675 z" />
    <path
       inkscape:connector-curvature="0"
       id="path3406"
       style="fill:#bebebe;fill-opacity:1;fill-rule:nonzero;stroke:#000000;stroke-width:0.9375;stroke-linecap:round;stroke-linejoin:round;stroke-miterlimit:10;stroke-dasharray:none;stroke-opacity:1"
       d="m 481.44197,638.39349 9.79999,0 0,-21.125 -9.79999,0 0,21.125 z" />
    <path
       inkscape:connector-curvature="0"
       id="path3408"
       style="fill:#bebebe;fill-opacity:1;fill-rule:nonzero;stroke:#000000;stroke-width:0.9375;stroke-linecap:round;stroke-linejoin:round;stroke-miterlimit:10;stroke-dasharray:none;stroke-opacity:1"
       d="m 493.20446,638.39349 9.8,0 0,-12.675 -9.8,0 0,12.675 z" />
    <path
       inkscape:connector-curvature="0"
       id="path3410"
       style="fill:#bebebe;fill-opacity:1;fill-rule:nonzero;stroke:#000000;stroke-width:0.9375;stroke-linecap:round;stroke-linejoin:round;stroke-miterlimit:10;stroke-dasharray:none;stroke-opacity:1"
       d="m 504.95447,638.39349 9.79999,0 0,-42.25 -9.79999,0 0,42.25 z" />
    <path
       inkscape:connector-curvature="0"
       id="path3412"
       style="fill:#bebebe;fill-opacity:1;fill-rule:nonzero;stroke:#000000;stroke-width:0.9375;stroke-linecap:round;stroke-linejoin:round;stroke-miterlimit:10;stroke-dasharray:none;stroke-opacity:1"
       d="m 516.71696,638.39349 9.8,0 0,-42.25 -9.8,0 0,42.25 z" />
    <path
       inkscape:connector-curvature="0"
       id="path3414"
       style="fill:#bebebe;fill-opacity:1;fill-rule:nonzero;stroke:#000000;stroke-width:0.9375;stroke-linecap:round;stroke-linejoin:round;stroke-miterlimit:10;stroke-dasharray:none;stroke-opacity:1"
       d="m 528.46697,638.39349 9.8,0 0,-25.35 -9.8,0 0,25.35 z" />
    <path
       inkscape:connector-curvature="0"
       id="path3416"
       style="fill:#bebebe;fill-opacity:1;fill-rule:nonzero;stroke:#000000;stroke-width:0.9375;stroke-linecap:round;stroke-linejoin:round;stroke-miterlimit:10;stroke-dasharray:none;stroke-opacity:1"
       d="m 540.22946,638.39349 9.8,0 0,-54.925 -9.8,0 0,54.925 z" />
    <path
       inkscape:connector-curvature="0"
       id="path3418"
       style="fill:#bebebe;fill-opacity:1;fill-rule:nonzero;stroke:#000000;stroke-width:0.9375;stroke-linecap:round;stroke-linejoin:round;stroke-miterlimit:10;stroke-dasharray:none;stroke-opacity:1"
       d="m 551.97946,638.39349 9.8,0 0,-21.125 -9.8,0 0,21.125 z" />
    <path
       inkscape:connector-curvature="0"
       id="path3420"
       style="fill:#bebebe;fill-opacity:1;fill-rule:nonzero;stroke:#000000;stroke-width:0.9375;stroke-linecap:round;stroke-linejoin:round;stroke-miterlimit:10;stroke-dasharray:none;stroke-opacity:1"
       d="m 563.74196,638.39349 9.8,0 0,-16.9 -9.8,0 0,16.9 z" />
    <path
       inkscape:connector-curvature="0"
       id="path3422"
       style="fill:#bebebe;fill-opacity:1;fill-rule:nonzero;stroke:#000000;stroke-width:0.9375;stroke-linecap:round;stroke-linejoin:round;stroke-miterlimit:10;stroke-dasharray:none;stroke-opacity:1"
       d="m 575.50446,638.39349 9.8,0 0,-63.375 -9.8,0 0,63.375 z" />
    <path
       inkscape:connector-curvature="0"
       id="path3424"
       style="fill:#bebebe;fill-opacity:1;fill-rule:nonzero;stroke:#000000;stroke-width:0.9375;stroke-linecap:round;stroke-linejoin:round;stroke-miterlimit:10;stroke-dasharray:none;stroke-opacity:1"
       d="m 587.25446,638.39349 9.8,0 0,-29.575 -9.8,0 0,29.575 z" />
    <path
       inkscape:connector-curvature="0"
       id="path3426"
       style="fill:#bebebe;fill-opacity:1;fill-rule:nonzero;stroke:#000000;stroke-width:0.9375;stroke-linecap:round;stroke-linejoin:round;stroke-miterlimit:10;stroke-dasharray:none;stroke-opacity:1"
       d="m 599.01697,638.39349 9.79999,0 0,-54.925 -9.79999,0 0,54.925 z" />
    <path
       inkscape:connector-curvature="0"
       id="path3428"
       style="fill:#bebebe;fill-opacity:1;fill-rule:nonzero;stroke:#000000;stroke-width:0.9375;stroke-linecap:round;stroke-linejoin:round;stroke-miterlimit:10;stroke-dasharray:none;stroke-opacity:1"
       d="m 610.76697,638.39349 9.79999,0 0,-12.675 -9.79999,0 0,12.675 z" />
    <g
       id="g3430"
       transform="matrix(1.25,0,0,-1.25,71.941965,732.51849)">
      <text
         transform="matrix(1,0,0,-1,59.78,47.52)"
         style="font-variant:normal;font-weight:normal;font-size:16px;font-family:Helvetica;-inkscape-font-specification:Helvetica;writing-mode:lr-tb;fill:#000000;fill-opacity:1;fill-rule:nonzero;stroke:none"
         id="text3432">
        <tspan
           x="0 8.8959999 17.792 26.688"
           y="0"
           sodipodi:role="line"
           id="tspan3434">1789</tspan>
      </text>
      <text
         transform="matrix(1,0,0,-1,116.21,47.52)"
         style="font-variant:normal;font-weight:normal;font-size:16px;font-family:Helvetica;-inkscape-font-specification:Helvetica;writing-mode:lr-tb;fill:#000000;fill-opacity:1;fill-rule:nonzero;stroke:none"
         id="text3436">
        <tspan
           x="0 8.8959999 17.792 26.688"
           y="0"
           sodipodi:role="line"
           id="tspan3438">1802</tspan>
      </text>
      <text
         transform="matrix(1,0,0,-1,172.64,47.52)"
         style="font-variant:normal;font-weight:normal;font-size:16px;font-family:Helvetica;-inkscape-font-specification:Helvetica;writing-mode:lr-tb;fill:#000000;fill-opacity:1;fill-rule:nonzero;stroke:none"
         id="text3440">
        <tspan
           x="0 8.8959999 17.792 26.688"
           y="0"
           sodipodi:role="line"
           id="tspan3442">1815</tspan>
      </text>
      <text
         transform="matrix(1,0,0,-1,229.08,47.52)"
         style="font-variant:normal;font-weight:normal;font-size:16px;font-family:Helvetica;-inkscape-font-specification:Helvetica;writing-mode:lr-tb;fill:#000000;fill-opacity:1;fill-rule:nonzero;stroke:none"
         id="text3444">
        <tspan
           x="0 8.8959999 17.792 26.688"
           y="0"
           sodipodi:role="line"
           id="tspan3446">1821</tspan>
      </text>
      <text
         transform="matrix(1,0,0,-1,285.51,47.52)"
         style="font-variant:normal;font-weight:normal;font-size:16px;font-family:Helvetica;-inkscape-font-specification:Helvetica;writing-mode:lr-tb;fill:#000000;fill-opacity:1;fill-rule:nonzero;stroke:none"
         id="text3448">
        <tspan
           x="0 8.8959999 17.792 26.688"
           y="0"
           sodipodi:role="line"
           id="tspan3450">1828</tspan>
      </text>
      <text
         transform="matrix(1,0,0,-1,341.94,47.52)"
         style="font-variant:normal;font-weight:normal;font-size:16px;font-family:Helvetica;-inkscape-font-specification:Helvetica;writing-mode:lr-tb;fill:#000000;fill-opacity:1;fill-rule:nonzero;stroke:none"
         id="text3452">
        <tspan
           x="0 8.8959999 17.792 26.688"
           y="0"
           sodipodi:role="line"
           id="tspan3454">1834</tspan>
      </text>
      <text
         transform="matrix(1,0,0,-1,398.38,47.52)"
         style="font-variant:normal;font-weight:normal;font-size:16px;font-family:Helvetica;-inkscape-font-specification:Helvetica;writing-mode:lr-tb;fill:#000000;fill-opacity:1;fill-rule:nonzero;stroke:none"
         id="text3456">
        <tspan
           x="0 8.8959999 17.792 26.688"
           y="0"
           sodipodi:role="line"
           id="tspan3458">1840</tspan>
      </text>
    </g>
    <g
       id="g3460"
       transform="matrix(1.25,0,0,-1.25,71.941965,732.51849)">
      <text
         transform="matrix(1,0,0,-1,182.69,283.91)"
         style="font-variant:normal;font-weight:bold;font-size:19px;font-family:Helvetica;-inkscape-font-specification:Helvetica-Bold;writing-mode:lr-tb;fill:#000000;fill-opacity:1;fill-rule:nonzero;stroke:none"
         id="text3462">
        <tspan
           x="0 12.673 24.282 35.701 40.983002 46.264999 56.828999 67.392998 73.720001 79.001999 90.611 102.22 107.502 118.655 129.21899 139.783"
           y="0"
           sodipodi:role="line"
           id="tspan3464">Publication Year</tspan>
      </text>
      <text
         transform="matrix(1,0,0,-1,240.5,18.72)"
         style="font-variant:normal;font-weight:normal;font-size:16px;font-family:Helvetica;-inkscape-font-specification:Helvetica;writing-mode:lr-tb;fill:#000000;fill-opacity:1;fill-rule:nonzero;stroke:none"
         id="text3466">
        <tspan
           x="0 8.4320002 17.327999 26.224001"
           y="0"
           sodipodi:role="line"
           id="tspan3468">Year</tspan>
      </text>
      <text
         transform="matrix(0,1,1,0,12.96,101.21)"
         style="font-variant:normal;font-weight:normal;font-size:16px;font-family:Helvetica;-inkscape-font-specification:Helvetica;writing-mode:lr-tb;fill:#000000;fill-opacity:1;fill-rule:nonzero;stroke:none"
         id="text3470">
        <tspan
           x="0 11.552 20.448 33.776001 42.672001 51.568001 56.896 61.344002 70.239998 74.688004 79.136002 89.807999 95.776001 100.224 103.776 111.776 115.328 124.224"
           y="0"
           sodipodi:role="line"
           id="tspan3472">Number of Articles</tspan>
      </text>
    </g>
    <g
       id="g3474"
       transform="matrix(1.25,0,0,-1.25,71.941965,732.51849)">
      <path
         d="m 59.04,75.3 0,169.01"
         style="fill:none;stroke:#000000;stroke-width:0.75;stroke-linecap:round;stroke-linejoin:round;stroke-miterlimit:10;stroke-dasharray:none;stroke-opacity:1"
         id="path3476"
         inkscape:connector-curvature="0" />
      <path
         d="m 59.04,75.3 -7.2,0"
         style="fill:none;stroke:#000000;stroke-width:0.75;stroke-linecap:round;stroke-linejoin:round;stroke-miterlimit:10;stroke-dasharray:none;stroke-opacity:1"
         id="path3478"
         inkscape:connector-curvature="0" />
      <path
         d="m 59.04,109.1 -7.2,0"
         style="fill:none;stroke:#000000;stroke-width:0.75;stroke-linecap:round;stroke-linejoin:round;stroke-miterlimit:10;stroke-dasharray:none;stroke-opacity:1"
         id="path3480"
         inkscape:connector-curvature="0" />
      <path
         d="m 59.04,142.9 -7.2,0"
         style="fill:none;stroke:#000000;stroke-width:0.75;stroke-linecap:round;stroke-linejoin:round;stroke-miterlimit:10;stroke-dasharray:none;stroke-opacity:1"
         id="path3482"
         inkscape:connector-curvature="0" />
      <path
         d="m 59.04,176.71 -7.2,0"
         style="fill:none;stroke:#000000;stroke-width:0.75;stroke-linecap:round;stroke-linejoin:round;stroke-miterlimit:10;stroke-dasharray:none;stroke-opacity:1"
         id="path3484"
         inkscape:connector-curvature="0" />
      <path
         d="m 59.04,210.51 -7.2,0"
         style="fill:none;stroke:#000000;stroke-width:0.75;stroke-linecap:round;stroke-linejoin:round;stroke-miterlimit:10;stroke-dasharray:none;stroke-opacity:1"
         id="path3486"
         inkscape:connector-curvature="0" />
      <path
         d="m 59.04,244.31 -7.2,0"
         style="fill:none;stroke:#000000;stroke-width:0.75;stroke-linecap:round;stroke-linejoin:round;stroke-miterlimit:10;stroke-dasharray:none;stroke-opacity:1"
         id="path3488"
         inkscape:connector-curvature="0" />
      <text
         transform="scale(1,-1)"
         style="font-variant:normal;font-weight:normal;font-size:16px;font-family:Helvetica;-inkscape-font-specification:Helvetica;writing-mode:lr-tb;fill:#000000;fill-opacity:1;fill-rule:nonzero;stroke:none"
         id="text3490"
         x="31.709219"
         y="-69.596092">
        <tspan
           x="31.709219"
           y="-69.596092"
           id="tspan3492">0</tspan>
      </text>
      <text
         transform="scale(1,-1)"
         style="font-variant:normal;font-weight:normal;font-size:16px;font-family:Helvetica;-inkscape-font-specification:Helvetica;writing-mode:lr-tb;fill:#000000;fill-opacity:1;fill-rule:nonzero;stroke:none"
         id="text3494"
         x="26.722157"
         y="-103.94315">
        <tspan
           x="26.722157 35.618156"
           y="-103.94315"
           sodipodi:role="line"
           id="tspan3496">10</tspan>
      </text>
      <text
         transform="scale(1,-1)"
         style="font-variant:normal;font-weight:normal;font-size:16px;font-family:Helvetica;-inkscape-font-specification:Helvetica;writing-mode:lr-tb;fill:#000000;fill-opacity:1;fill-rule:nonzero;stroke:none"
         id="text3498"
         x="27.351688"
         y="-137.11363">
        <tspan
           x="27.351688 36.247688"
           y="-137.11363"
           sodipodi:role="line"
           id="tspan3500">20</tspan>
      </text>
      <text
         transform="scale(1,-1)"
         style="font-variant:normal;font-weight:normal;font-size:16px;font-family:Helvetica;-inkscape-font-specification:Helvetica;writing-mode:lr-tb;fill:#000000;fill-opacity:1;fill-rule:nonzero;stroke:none"
         id="text3502"
         x="27.261219"
         y="-171.0119">
        <tspan
           x="27.261219 36.157219"
           y="-171.0119"
           sodipodi:role="line"
           id="tspan3504">30</tspan>
      </text>
      <text
         transform="scale(1,-1)"
         style="font-variant:normal;font-weight:normal;font-size:16px;font-family:Helvetica;-inkscape-font-specification:Helvetica;writing-mode:lr-tb;fill:#000000;fill-opacity:1;fill-rule:nonzero;stroke:none"
         id="text3506"
         x="27.491688"
         y="-204.57362">
        <tspan
           x="27.491688 36.387688"
           y="-204.57362"
           sodipodi:role="line"
           id="tspan3508">40</tspan>
      </text>
      <text
         transform="scale(1,-1)"
         style="font-variant:normal;font-weight:normal;font-size:16px;font-family:Helvetica;-inkscape-font-specification:Helvetica;writing-mode:lr-tb;fill:#000000;fill-opacity:1;fill-rule:nonzero;stroke:none"
         id="text3510"
         x="27.261219"
         y="-238.6041">
        <tspan
           x="27.261219 36.157219"
           y="-238.6041"
           sodipodi:role="line"
           id="tspan3512">50</tspan>
      </text>
    </g>
  </g>
</svg>
